<?xml version="1.0" encoding="UTF-8" standalone="no"?>
<svg
   xmlns:amcharts="http://amcharts.com/ammap"
   xmlns:dc="http://purl.org/dc/elements/1.1/"
   xmlns:cc="http://creativecommons.org/ns#"
   xmlns:rdf="http://www.w3.org/1999/02/22-rdf-syntax-ns#"
   xmlns:svg="http://www.w3.org/2000/svg"
   xmlns="http://www.w3.org/2000/svg"
   version="1.1"
   id="svg2">
  <metadata
     id="metadata39">
    <rdf:RDF>
      <cc:Work
         rdf:about="">
        <dc:format>image/svg+xml</dc:format>
        <dc:type
           rdf:resource="http://purl.org/dc/dcmitype/StillImage" />
        <dc:title></dc:title>
      </cc:Work>
    </rdf:RDF>
  </metadata>
  <defs
     id="defs4">
    <style
       type="text/css"
       id="style6">
			.land
			{
				fill: #CCCCCC;
				fill-opacity: 1;
				stroke:white;
				stroke-opacity: 1;
				stroke-width:0.5;
			}
		</style>
    <amcharts:ammap
       projection="mercator"
       leftLongitude="22.138577"
       topLatitude="52.380834"
       rightLongitude="40.220623"
       bottomLatitude="44.387017" />
    <!-- All areas are listed in the line below. You can use this list in your script. -->
    <!--{id:"UA-40"},{id:"UA-43"},{id:"UA-71"},{id:"UA-74"},{id:"UA-77"},{id:"UA-12"},{id:"UA-14"},{id:"UA-26"},{id:"UA-63"},{id:"UA-65"},{id:"UA-68"},{id:"UA-30"},{id:"UA-32"},{id:"UA-35"},{id:"UA-09"},{id:"UA-46"},{id:"UA-48"},{id:"UA-51"},{id:"UA-53"},{id:"UA-56"},{id:"UA-59"},{id:"UA-61"},{id:"UA-21"},{id:"UA-05"},{id:"UA-07"},{id:"UA-23"},{id:"UA-18"}-->
  </defs>
  <g
     id="g8"
     style="fill:#999999"
     transform="translate(-369.49152,-124.57627)">
    <path
       d="m 374.15039,0 -0.14062,0.3203125 -0.59961,0.0703125 -0.0703,1.7597656 -1.16015,-0.2597656 -0.65039,1.0292969 -1.5586,1.2695312 -0.2207,-0.4492187 0.36914,-0.2109375 -0.0488,-0.4785157 -0.38086,-0.1914062 -0.59961,1.1699219 -1.33007,1.0097656 -0.2793,0.8417969 -1.09961,-0.03125 -1.87109,1.5097656 -0.69922,-0.1699219 -0.0996,-1.3789062 -1.54102,-0.2597657 -0.7207,1.0292969 -0.61914,-0.2695312 -1.08985,0.3691406 -0.32031,-0.4804687 -1.84961,0.9902343 -0.60937,-1.1289062 -2.56055,-1.9296875 -0.93945,0.2695312 -1.02149,-1.390625 -1.3789,-0.1191406 -0.71094,0.7597656 -0.83008,-0.7304687 -0.85937,0.2402343 -1.1211,-0.7792968 -1.25,0.039063 -0.3789,0.4003906 -0.0508,0.8398437 0.58984,1.9589844 0.70117,0 -0.23047,1.0507813 0.36914,0.5898437 -0.53906,0.3808594 -1.19922,-0.1210938 -0.7207,1.2109376 0.7793,1.6992187 -0.70899,2.099609 1.26953,-0.228516 0.0996,0.539064 -1.58984,0.699218 -0.0899,0.601562 -0.78906,0.138672 -0.0898,0.919923 -1.29102,0.839842 -0.99023,0.181641 -0.94922,0.75 -1.64063,0.05859 -0.5,1.451172 -1.16015,-0.07031 -0.15039,0.599609 -4.16992,-1.039063 -1.88868,0.46875 0.41992,-0.160156 -0.27148,-0.36914 0.7207,-0.160156 0.48047,-0.539063 0.0996,-0.560547 -1.90039,-1.371094 -1.17969,-0.419921 -1.70898,0.650391 -1.19141,-0.810548 -2.00976,0.951173 -0.26953,-0.630861 -1.41016,-0.419922 -2.26953,0.01953 -2.90039,-0.628908 -1.01953,0.5 -0.71094,-0.140625 -0.59961,-1.199217 -1.58984,-0.01953 -0.90039,0.458985 0.25976,0.669923 -2.07031,0.871092 -0.41016,1.009767 0.24024,0.298827 -0.75,1.580079 -1.44922,0.560546 -0.94922,-0.470702 -0.49024,-0.59961 0.0488,-0.548828 -1.77929,-0.421875 -0.65039,-1.238282 -1.47071,0.660158 -1.06836,-0.03125 -2.70117,0.710937 -0.84961,-0.300782 0.041,-0.419922 -0.4316,0.08008 0.0605,0.800781 -0.6289,0.08984 0.5,1.269531 -0.3418,-0.0293 -0.18945,-0.560547 -0.28907,0.128907 0.50977,0.740234 -0.53125,0.300781 0.41016,0.390625 -0.41992,-0.06055 0.25,0.529297 -0.54883,0.111329 0.21875,0.339843 -0.22852,0.378907 0.58984,0.220703 0.01,0.548828 -0.51953,0.130859 -0.5,-0.679687 -0.31055,0.480468 0.58008,0.488282 -0.83008,0.191406 0.12891,0.769531 -0.56836,0.150391 L 295.3205,22.460928 294.5,23 l -0.01,0.380859 0.5,0.01953 -0.31054,0.388671 -0.71875,-0.449218 -0.44141,0.380859 0.5,1.5 -0.75976,1.269531 -1.83985,-0.230468 -0.30078,1.019531 -1.08984,0.960937 -0.35938,1.619141 -1.4707,0.650391 0.60156,1.560546 -0.53125,0.708985 0.0899,0.490234 -0.82032,-0.04883 -0.61914,0.378906 0.10938,0.410157 0.83008,-0.240235 0.25976,0.259766 -0.68945,1.320312 -0.16016,1.189453 -2.0293,0.431641 0.41993,1.539063 -0.19922,0.859375 -0.69141,-0.06836 -0.68945,-0.669922 -0.43946,0.330079 0.60938,0.689453 -0.81055,1 -0.0898,0.61914 0.91016,0.240235 -0.0391,0.380859 0.75,0.5 -0.32031,0.308594 -0.91992,-0.228516 -0.33985,0.410156 0.62891,0.708985 0.88086,0.25 -0.83984,0.419922 -0.0215,0.460937 0.63086,1.179688 0.76953,-0.53125 0.40039,0.240234 -0.44922,1.951172 0.47852,0.458984 0.24024,1.339844 1.08007,0.611328 -0.0391,0.349609 -1.34961,0.509766 0.14844,1.199219 0.30078,0.310547 0.81055,-0.208985 1.21875,2.539063 -0.59961,1 0.46093,1.169922 -0.91992,0.390625 -1.00976,0.980469 0.6289,0.359374 -0.31054,0.369141 0.66992,-0.289062 -0.29883,1.080078 L 284.36914,61 l 0.0265,0.02648 -1.11632,-1.036249 -1.8086,0.410157 0.29883,-1.800782 -2,-0.15039 -2.36914,-2.388672 -0.25977,-0.441406 1.04883,-0.908203 -0.55859,-2.171876 0.34961,-0.21875 -0.58008,-0.140624 -1.5,-1.990235 L 274.46094,49 272.94922,48.480469 272,47.570312 l -0.41992,1.199219 -1.18946,-0.990234 -0.2207,0.111328 0.23047,0.789063 -0.28125,0.160156 -3.47852,-0.890625 -0.16015,0.791015 -0.71094,0.449219 -0.45898,-0.150391 -0.3711,0.720704 -1.28906,-1 -1.08984,0.279296 -0.40039,0.38086 0.2207,0.300781 -0.41992,1.429688 -1.20117,-0.63086 -0.91993,0.400391 -0.36914,-0.539063 -0.39062,0.128907 0,0.839843 -1.64063,-0.859375 -0.59961,-1.701172 0.6211,-0.279296 -0.0605,-1.128907 -0.25,-0.800781 -0.70117,0.0098 -0.23828,0.460937 -1.21094,0.539063 -0.15039,0.460937 -0.40039,-0.160156 -0.47852,0.349609 -0.33008,-0.300781 -0.37109,0.621094 -0.46875,0.09961 -0.0215,0.890625 -0.81836,0.660157 -1.47071,-0.951172 -0.75,1.800781 0.0899,1.259765 -0.63086,1.34961 -3.04883,-0.730469 -0.9707,0.5 -0.76953,0.951172 0.01,0.488281 1.17969,-0.179687 0,0.01172 -1.17969,0.179687 0,-0.01172 -0.01,0.002 -0.01,-0.5 -1.31055,0.339844 0.10938,-1.310547 -0.67969,-2.791015 -1.23047,-0.388672 0,-0.730469 -0.69922,-1.119141 0.43946,-1.841797 -0.24024,-1.988281 -1.41992,-0.339843 -0.18945,-1.310547 -0.98047,-0.800782 0.23047,-0.580078 -0.68946,-0.298828 0.42969,-1.041015 -0.31054,-0.310547 -2,0.0918 -2.66016,3.398437 -1.00977,0.78125 -0.78906,0.07031 -0.24023,-0.910157 -2.0293,0.05859 -1.8418,1.320313 -1,0.210937 -2.09961,3.958984 0.5,0.660157 0.17969,1.230468 -0.26953,0.119141 -0.10938,1.230469 -0.59961,0.630859 -0.53124,-1.101562 0.01,-1.658203 -1.19922,1.289062 -0.61914,-0.269531 -1.39062,-5.730469 0.39062,-0.400391 -0.64062,0.25 -0.10938,-0.240234 0.91992,-0.439453 -3.4414,-0.09961 -0.01,-0.550781 -1.0293,-0.138672 -0.25976,-0.419921 -1.61133,-0.13086 -2.61914,2.279297 -1.26953,0.660156 -0.34961,-1.910156 -2.11133,-2.660156 -0.84961,0.121093 0.34961,-2.990234 -0.33984,-0.330078 -2.86914,1.949219 -0.14063,1.191406 -0.5293,0.878906 -0.87109,0.140625 -0.94922,1.529297 -1.03125,-0.08984 -1.08984,0.730469 -3.26953,0.410156 1.2207,-1.929687 -0.70117,-0.0098 -0.41992,0.728516 -0.79883,0.160156 0.10937,-1.458984 -0.34961,-0.640625 -2.07031,-0.759766 -1.07031,0.75 0.65039,0.490234 -0.4707,1.699219 0.79101,1.84961 -0.49023,0.410156 -1.17969,0.169922 -1.33984,3.050781 -0.77149,-0.08984 -2.5,-2.130859 0.43164,-0.189453 0.0801,-1.060547 1.37891,-1.330078 0.31054,-1.369141 -0.20117,-0.791016 -1.03906,-0.01953 -0.36914,-0.40039 -1.18164,-0.21875 -0.83984,0.589843 -2.39844,-1.701172 -0.43164,0.75 -0.66992,-0.75 -0.3086,0.38086 0.11914,1.210937 0.5,-0.03125 -0.7793,1.09961 -0.85156,-0.488281 0.33008,-0.771485 -0.19922,-0.308594 -0.63086,0.439453 -0.38867,-0.701171 -0.83984,0.441406 -0.0508,0.439453 -1.16016,-0.140625 -1.03906,-0.539063 -0.67969,0.640626 -3.28125,0.138671 0.0312,-1.039062 0.96875,-1.75 -0.81055,-0.691406 -1.38867,0.15039 -0.23047,-5.949219 -7.08008,0.279297 -1.56054,1.810547 -1.04883,-0.669922 -1.25,-0.07031 -1.08008,-0.929688 -1.80078,0.490235 -0.20899,-0.519531 -1.17968,-0.580079 0.18945,-0.980468 -0.29101,-0.451172 -1.41016,-0.509766 -0.60938,-0.679687 -2.58007,0.08008 -0.75,-0.300782 -0.11915,0.470704 L 149.5,31.150391 149.08008,32 l -2.41016,-0.08984 -0.10937,-0.75 -0.86133,-0.220703 -0.71875,-1.099609 -0.83008,0.121094 -0.0996,-2.210938 -0.9414,0.660156 -2.04883,0.128906 -0.53125,-0.449218 -2.33008,-0.169922 -1.0586,0.541016 -0.38085,-0.310547 -0.69922,0.138671 -0.0606,-0.728515 -0.53906,0.09961 -1.58008,-1.839844 -1.4707,-0.25 -0.15039,-0.560546 -1.23047,-0.390625 -0.7793,0.06055 -1.75,0.919921 -3.53906,-0.519531 -0.32032,-0.269531 0.12891,-0.771485 -1.48047,-0.388671 -0.41992,0.11914 0.44141,1.410157 -0.70117,-0.140626 -1.72852,0.451172 -3.98047,-0.460937 -2.07031,-0.798828 -0.59961,0.980469 -0.83985,-0.470704 -0.37109,0.580078 -2.17969,0 -0.28906,-0.410156 -2.23047,-0.449218 -2.58008,-1.761719 -1.16992,0.419922 -1.12109,-0.488282 -1.85938,0.958985 -1.48046,0.0098 -2.558599,1.791016 -0.761719,0.109375 -1.109374,1.080078 -1.128907,0 -0.441406,-0.779297 -2.529297,0.769531 -0.25,-0.791015 -0.40039,-0.08008 -2.259766,1.611328 -0.519531,0 -0.88086,-0.710938 -1.509765,0.210938 -1.439454,-0.550781 -2,0.669922 -3.179687,0.460937 -3.050781,-0.03125 -1.650391,1.220703 0.160156,0.619141 -1.609375,2.541015 0.769532,2.859375 -1.59961,1.759766 -5.029297,2.771484 -1.550781,2.46875 -1.820312,1.060547 -0.84961,1.109375 -2.509765,-0.958984 -1.390625,0.388672 -0.09961,-0.910157 1.128906,-1.298828 -2.86914,-0.769531 -1.179688,0.359375 -0.04102,-1.099609 -0.34961,-0.400391 L 53.179688,40 l -1.070313,-0.199219 -0.46875,0.669922 -1.919922,0.939453 0.849609,1.689453 1.060547,0.59961 -0.130859,0.771484 -0.769531,0.869141 1.339843,2.5 -0.390624,0.359375 -1.449219,-0.279297 -0.150391,-0.410156 0.07031,0.810546 0.65039,0.59961 L 51.5,48.689453 51.839844,49.089844 52,49.710938 l -0.919922,0.679687 0.08008,0.679687 1.199219,0.199219 -0.25,0.611328 0.451172,0.648438 0.388672,0.0098 -0.359375,0.220704 0.330078,0.169922 0.01953,0.519531 -0.878906,0.470703 0.378906,0.279297 -0.308594,0.5 0.21875,0.570312 -0.669921,0.07031 -0.509766,1.220703 0.199219,0.199219 -0.619141,0.429687 0.119141,1.25 0.40039,0.521485 -0.21875,0.449218 0.398438,0.269532 0.191406,-0.289063 1,0.259766 0.138672,-0.240235 0.02148,0.458985 0.96875,1.15039 0.01953,1.339844 0.541016,0.570313 -0.09961,0.689453 0.548828,0.06055 0.980469,1.259765 0.759765,0.230469 0.541016,1.199219 0.660156,-0.09961 0.929688,0.740235 -0.09961,1.080078 -0.480469,0.01953 -0.169921,0.490234 0.439453,0.490235 -0.109375,0.669922 0.419922,0.300781 0.189453,0.929687 0.320312,-0.279296 0.830078,0.439453 0.128907,1.708984 0.570312,0.201172 -0.509765,0.548828 0.240234,0.621094 0.419922,0.09961 -0.730469,0.199219 1.470703,1.121094 0.470703,2.080078 2.808594,3.179687 1.150391,0.140625 1.009765,0.988281 L 68,82.150391 l -0.220703,0.660156 -1.128906,0.888672 -2.09961,0.261719 0.0098,-0.28125 -1.380859,-0.07031 -0.609376,0.330078 -0.800781,1.130859 -0.169922,1.089844 0.38086,0.990235 0.36914,0.378906 1.13086,-0.21875 0.36914,0.339844 -0.378906,0.628906 0.369141,0.121094 -0.259766,0.21875 0.08008,1.271484 0.890625,0.398437 0.939453,-0.199218 -0.279296,2.199218 0.648437,0.201172 0.169922,0.699219 -0.298828,0.910156 0.230469,0.460938 0.36914,0.0098 -0.189453,0.949219 0.259766,0.720703 -0.509766,3.34961 -1.710937,5.121098 -0.980469,0.56836 -0.238281,1.23047 -1.970704,-0.11915 -4.541015,0.50977 -2.71875,0.91016 -0.871094,0.76953 -0.5,2.18945 -1.628906,0.66016 -1.84961,2.76953 -3.710937,2.56055 -5.289063,5.5 -0.740234,0.57031 -0.5,-0.041 0.0293,0.91016 -1.279297,1.58984 -0.820313,0.3418 -0.160156,0.97852 -3.339844,3.96093 -3.990234,5.86914 -0.919922,0.25977 -0.310547,1.75 -1.429687,1.18164 -0.810547,1.6582 -0.779297,0.6211 -0.880859,1.49023 -0.71875,0.75 -0.701172,0.19922 -0.519531,0.75977 -0.160157,1.08007 -2.90039,3.78125 -1.119141,2.29883 -0.779297,0.48047 0.738281,1.49023 1.191407,0.40039 1.65039,6.83985 0.158203,2.33984 -0.378906,3.56055 -0.621094,0.30859 -0.21875,0.57032 0.160157,0.51953 0.919922,0.27148 -0.439453,0.25977 -0.890626,1.82031 0.390626,0.53906 0.529296,-0.91992 0.708985,-0.01 -0.558594,1.23047 0.439453,0.28907 1.259766,-0.24024 0.130859,0.99024 0.71875,0.43945 0.509766,0.9414 0.75,-0.13085 0.220703,0.62109 1.060547,0.29883 -0.830078,1.54101 0.320312,0.75977 -0.271484,0.63867 0.490234,0.0312 -0.21875,0.40039 0.619141,0.62891 -0.09961,0.55078 -1.460937,0.29883 -0.478516,-1.21875 -0.611328,0.0391 -1.519531,-1.43945 -0.5,0.52929 -1.759766,-0.41015 -0.609375,0.58984 -0.951172,-0.45898 -1.060547,-1.63086 -1.289062,-0.84961 -0.519531,0.2207 -0.669922,0.76953 -0.06055,2.5 -0.460938,0.41992 0.28125,0.74024 -0.839843,0.50976 -0.660157,-0.15039 -0.78125,0.38086 -0.148437,0.81055 -1.6796875,2.42969 0.21875,0.42968 -0.359375,1.81055 -0.8105469,0.46875 -0.4804687,0.81055 -0.21875,1.32031 0.3789062,1.7793 -1.3886719,1.96093 -0.089844,0.57032 0.5996094,0.47851 0.029297,0.41016 -0.75,2.51953 -1.2304688,0.39063 -1.7597656,1.5 -0.7089844,1.27929 -0.5214844,0.0117 L 1.519567,200.50957 0.75,202.35938 0,209.0293 l 0.23046875,1.6914 2.08984375,-1.18164 0.9902344,0.78125 0.9492187,0.0606 -0.8105468,1.25 0.890625,1.26953 1.7304687,0.37891 -0.1894531,1.37109 0.7890625,0.90039 0.099609,1.39844 1.4101563,2.2207 0.6796875,-0.73047 1.0800781,-0.10937 0.8300782,0.51953 1.009766,-0.60938 0.490234,0.2793 -0.138672,0.42969 0.609375,0.13086 -0.01953,0.57031 0.568359,0.86914 1.320313,0.63086 -0.240234,0.96875 0.371093,0.98047 0.289063,-0.0606 0.490234,0.81055 -0.330078,0.12109 0.371094,1.17969 -0.259766,0.49023 2.708985,0.83985 2.240234,-1.42969 0.699219,0.0195 0.390625,0.53907 0.291015,-0.19922 -0.130859,-0.44922 0.630859,0.21875 0.339844,-0.24024 0.160156,0.79102 0.330079,-0.58008 0.318359,0.0703 -0.05859,0.92969 0.46875,0.87891 0.800781,0.46093 0.230469,1.08985 0.439453,-0.13086 -0.529297,2.12109 -0.990234,1.09961 0.138672,0.39063 1.650391,0.65039 0.259765,0.67968 1.759766,-0.56054 -0.339844,-1.58985 -0.628906,-0.41015 0.289062,-0.64063 1.111328,0.56055 0.369141,-0.17969 1.460938,1.07031 0.609374,-0.70117 1.980469,-0.0996 0.199219,-0.5 -0.25,-0.18945 0.589844,-0.81055 -0.320313,-0.3789 0.429688,-0.55078 -0.208985,-0.63086 0.609375,-0.58008 -0.310547,-0.48828 0.851563,-0.38086 0.359375,-0.85938 0.580078,-0.41015 0.429688,0.11914 0.410156,1.01953 1.830078,0.26172 0.259766,-0.42188 0.439453,0.0606 0.08008,0.67969 0.75,0.68164 -0.369141,0.9082 0.410156,0.46094 1.46875,0.40039 -0.11914,0.88867 0.609375,-0.01 0.880859,0.85156 0.789063,0.0898 0.511719,0.68945 0.658203,-0.0801 0.580078,0.67968 1.490234,0.42969 0.900391,-1.41992 0.25,-1.19922 1.240234,0.82031 1.660156,-0.24023 1.75,1.20898 2.779297,-0.6289 1.009766,0.0996 1.5,0.83007 0.820312,1.90039 0.63086,0.39844 0.558593,-0.48828 2.011719,-0.27148 0.369141,-0.75977 0.830078,-0.17969 0.210938,0.35938 0.849609,-0.39844 0.798828,0.89844 1,-0.16992 1.111328,0.75976 0.580078,1.13086 2.71875,-0.16015 1.230469,1.05078 0.970703,-0.52149 0.789063,0.0508 1.490234,-1 0.839844,0.57032 1.089844,-0.58985 0.390624,-1.35937 1.419922,-0.83008 2.548828,0.95898 0.511719,-0.4707 0.939453,0.0801 0.400391,-0.46875 0.599609,0.13867 0.560547,0.99024 0.31836,-0.2793 0.630859,0.0801 0.310547,1.27929 0.5,0.24024 0.740234,1.18945 -0.25,0.9707 0.189453,0.59961 1.039063,0.56055 0.111328,0.63086 1.019531,-0.12109 0.560547,0.66992 0.478516,-0.45899 0.40039,0.12891 0.179688,0.58984 1.5,0.25 -0.21875,0.71094 0.5,0.62891 -0.02148,0.64062 1.390626,1.36914 0.240234,1.46094 1.300781,-0.16016 2.568359,0.0801 0.351563,-0.44922 1.070313,0.44922 0.519531,-1.08008 0.449219,0.25977 1.64062,-0.66016 0.54883,-1.25 0.5,-0.50976 0.63086,-0.0898 0.0508,-0.89062 1.8086,-2.5 0.35156,-1.66016 1.30859,-0.0391 1.46094,-1.08008 9.30859,-1.16992 1.99024,-0.59961 1.2207,0.38867 3.08984,0.15039 1.21094,-0.57031 0.50977,-0.63867 1.17968,-0.33008 1.01954,0.46875 0.50976,-0.16992 0.33985,-0.66992 1.24023,0.32031 3.78125,-0.87891 1.5,0.47852 2.59961,-0.8086 0.46875,-0.63085 0.51172,-2.25977 2.06836,-1.55078 0.79101,-2.58984 1.23047,-1.2793 -0.25,-0.90039 0.19922,-0.34961 0.46094,0.01 0.0586,-0.35937 0.39063,0.2793 0.5,-0.59961 0.41992,0.53906 1.17969,-0.71875 0.51953,0.33008 -0.10938,-0.39063 0.73047,-0.18945 0.45899,-0.7207 1.88085,0.57031 0.75977,-0.35938 0.14062,-0.49023 0.67969,0.28906 0.0606,-1.08984 0.43945,-0.25977 0.36914,0.36914 0.78125,-0.0391 -0.15039,-0.55078 0.46875,0.15039 0.0508,-0.49023 -0.3789,-0.85938 1.04883,-1.15039 0,-0.37891 0.89062,-0.65039 0.0391,-0.40039 0.65039,-0.14062 -0.42968,-1.37891 0.33984,-0.0801 1.56055,2.20899 0.58007,-0.36914 0.54883,1.00976 0.72071,0.42969 0.61914,-0.0996 0.48047,-0.9707 -0.23047,-1.56836 -0.46875,-0.3711 -0.5,0.39063 -0.96094,-0.54102 -1.70899,-2.50976 0.42969,-0.31055 0.93946,0.56055 0.83984,-1 2.41992,0.25 0.88086,-0.29883 0.69922,1.08008 -0.0488,0.76953 1.01953,0.94922 0.0898,-0.35938 2.16992,0.66016 0.31054,-1.09961 0.85938,-0.16992 0.58984,0.36914 0.10938,-0.25 -0.29883,-1.5 -0.81055,-0.63086 1.63086,0.0898 0.62891,-0.68945 0.33008,1.26953 1.56054,1.81055 0.94922,-0.24024 0.91016,-0.75976 0.70117,0.21093 0.70899,0.7793 0.9707,-0.35937 0.66992,0.49023 1.23047,-3.62109 0.58008,0.10937 0.10937,-0.39844 0.34961,0.38868 0,-0.42969 0.55078,0.33984 0.41992,0.34961 -0.0703,0.74024 0.34961,0.52148 1.93946,-0.0117 0.91015,-2.08984 1.04102,-0.13867 1.03906,-0.75977 2.13086,-1.12109 0.2793,0.35937 -0.45899,1.17188 1.70899,0.97851 1.32031,0.0996 2.09961,-0.84961 1.43945,0.54102 1.2207,1.40039 1.71094,0.73828 0.79883,2.23047 1.91016,1.57031 3.51953,0.34961 0.81054,0.44141 0.50977,1 -0.45899,2.30859 0.36915,0.81055 0.64062,0.0801 0.84961,-0.65039 0.30078,-0.83008 0.68945,0.041 0.76954,0.47852 0.01,1.85156 0.66016,0.5 3.25,-1.83984 0.66015,0.39844 1.04102,-0.69922 0.5293,0.93945 -0.0195,1.32031 -0.62109,1.15039 -1.36914,0.90039 -0.0703,1.11914 0.51953,0.35938 0.99023,-0.19922 1.0293,-1.91992 1.57031,0.10937 0.41016,1.42969 -0.63867,1.07031 1.45898,2.47071 1.18946,0.3789 -0.25977,-0.51953 0.13086,-1.73047 0.17969,-0.89844 0.58984,-0.5 -0.5,-0.66015 0.7793,-0.12109 1.33008,-1.10938 0.41992,0.34961 0.40039,-0.2793 0.70117,0.79883 1.21875,0.36133 0.0703,0.33984 1.06055,-0.0898 0.32031,1.00976 2.19922,-0.52929 0.56055,0.56836 1.17968,-0.36914 0.25977,0.41992 0.89062,-0.041 0.54883,1.22071 -0.30664,0.95507 -0.45312,0.34571 0.49023,0.10937 0.0996,0.58008 -0.41015,1.31055 1.38085,1.08984 -0.01,0.66992 1.48047,2.0293 1.44922,-1.01953 2.09961,1.73047 1.26953,0.15039 0.7207,-0.28125 -0.24023,-1.08008 0.66992,0.4707 -0.0801,-0.60937 -0.40039,-0.21094 0.27148,-0.25977 1.3086,-0.0195 -0.12891,-0.58008 1.61914,0.0488 0.91016,5.41993 0.33008,0 0.17968,-0.57032 -0.0195,0.48047 2.05078,-0.19922 -0.18164,0.58008 -1.6289,1.23047 -0.79102,1.38867 -0.01,0.54102 0.70117,1 0.91015,-0.72071 0.86914,0.3711 -0.85937,2.52929 -1.13086,0.69922 -0.31055,0.91016 0.83008,1.84961 -0.35937,0.10156 0.0195,1.11914 -0.47852,0.92969 0.87891,-0.0391 -0.75,0.69922 0.23047,0.79101 -1.07032,1.37891 -0.0605,0.58984 -2.33985,0.87109 1.25977,2.32032 1.10156,-0.5 0.16992,0.23828 -0.041,1.91992 -0.99024,0.8418 0.22071,0.25976 0.90039,-0.7207 0.13867,0.2793 -0.5293,0.62109 0.33985,1.26953 1.75,-1.80078 0.16992,2.25 0.85937,-0.94922 1.52149,-0.66992 0.66992,3.83008 1.76953,-0.49024 0.26953,1.38086 -0.46875,0.36914 0.48828,2.19922 0.86133,-0.22851 0.20899,0.78906 1.81054,-0.83984 -0.01,-1.18946 0.4707,-0.29101 -0.33008,-0.16992 -0.0117,-0.74024 0.6211,-0.39844 2.30078,-0.39062 0.8789,5.61914 -1.58984,0.41016 0.99023,5.64062 -2.89062,0.7207 0.0605,0.62891 0.6289,-0.13867 0.51172,1.93945 0.56836,-0.15039 -0.0488,-0.91016 2.21875,-0.18945 0.5,2.66992 -0.83984,0.35938 -0.18945,3.70117 -1.32032,0.25 0.52149,0.81836 2.22851,-0.62891 0.32032,1.61914 2.10937,-0.10937 0.33008,-0.33985 1.07031,3.44922 3.04102,-0.61914 0.19922,-0.41992 1.18945,-0.20117 0.28125,1.54101 -0.25977,0.19922 0.70899,1.48047 1.40039,-1.00976 0.70898,0.40039 0.33008,0.78906 -0.53906,-0.0488 -0.85938,0.58984 1.2793,2.63868 0.0195,3.08008 -0.87891,2.13085 0.39844,2.25977 -0.83984,0.89062 0.0215,0.66016 0.44922,0.47852 -2.5,0.62109 0.42969,-0.0195 0.43945,0.6582 -0.18945,0.26172 0.56055,0.28906 -0.19922,0.38086 0.66992,0.0801 0.01,0.5 0.50977,-0.0117 -0.12109,0.41016 0.74023,-0.75977 -0.25,0.91993 0.31055,0 0.33984,-0.5293 0.36914,0.16015 0.17188,-0.5 -0.0215,0.75 0.48047,-0.0801 -0.36914,0.82031 0.2793,0.37891 0.83008,0.10156 -0.96094,0.44922 L 267,308 l -0.0605,0.53906 1.38086,-0.0195 -0.25,0.74024 0.69922,0.17968 0.15039,-0.54883 0.50977,0.43946 -0.0488,-0.67969 0.31836,0.60938 0.30078,-0.16993 0.35938,0.26954 0.30078,0.7207 0.75976,-0.91016 0.16016,0.81055 -2.33008,1.54883 -1.08008,-0.88868 -1.30078,0.74024 -0.80859,-0.30078 -0.42969,0.36914 -1.65039,-0.91016 -1.75977,1.40039 0.0488,0.99024 -2.59961,-1.58008 0.48047,-0.57031 -1.11133,-0.84961 -0.48828,-1.99024 -1.20117,-0.80859 -0.48047,0.25976 0.55078,1.09961 -0.28906,0.5 -1.5918,0.35938 -0.38867,-0.70899 -0.4707,0.26954 0.41992,3.58007 -2.35938,0.33985 -0.16992,-0.44922 -0.73047,0.12891 -0.53906,-2.72071 -1.95117,-0.34961 -0.79883,-0.75976 0.76953,-0.95899 -1.74023,-1.75 -2.16992,2.34961 0.30078,1.06055 -1.66016,-3.83008 -0.51172,0.35938 0.15039,1.08007 -0.91992,0.43946 0.31055,0.74023 -0.4707,0.34961 0.60156,1.41992 -0.60156,0.27149 -0.29883,-0.41016 -1.08985,0.56836 0.0488,0.54102 -0.91015,0.85937 -1.12891,-0.38867 1.29883,-1.57031 -0.83985,-2.29102 1.19141,-1.05859 -0.21094,-0.71094 -0.33008,-0.0195 -0.1289,-2.86133 -2.43164,0.7207 -0.0586,1.41016 -3.25976,0.14062 -0.88086,0.33008 -0.2793,0.67969 -1.43164,0.16016 0.0606,0.46875 1.14062,-0.0195 0.0703,0.80078 -3.2207,0.24023 2.17969,6.16992 -1.46875,3.50977 3.78906,3.13867 -3.84961,4.80078 1.87891,2.36914 -0.87891,2.17188 -6.92969,1.55859 0.18946,0.48047 -0.75977,0.16992 0.20899,0.98047 -0.21875,0.58984 0.91992,4.44922 -2.86133,0.82032 0.31055,1.73046 -2.86914,0.75977 -1.31055,-0.30078 0.35938,1.39062 -0.16016,0.58008 -1.68945,-0.23047 -0.91016,0.92969 -1.12891,2.41992 1.22852,0.0215 0.9707,4.11914 -1.91015,0.45117 0.76953,3.38867 -2.75977,0.67969 -0.35937,-1.42969 0.17968,-0.65039 -1.33007,0.26172 -2.72071,-1.04102 -2.08984,1.92969 -1.09961,1.91992 2.26953,0.94141 0.0918,2.33984 2.11914,3.59961 7.33984,3.53907 2.59961,0.25 2.66016,0.90039 2.49023,-0.83985 -0.0293,-0.4707 -0.9414,-0.59961 -0.39844,-0.84961 1.64844,-0.82031 0.15039,-0.54883 -0.79883,-0.5918 0.5586,-0.55859 0.75976,-0.0312 0.8418,0.86133 0.96875,0.0391 1.40039,1.43945 0.90039,0.33008 0.41015,-0.53906 -0.15039,-1.00977 0.58008,-0.91015 0.76953,-0.0996 3.24024,-1.94141 2.28906,-0.71875 0.91016,-0.55078 0.29101,-0.63867 1.09961,-0.33008 0.66016,-0.63086 1.67969,0.2793 1.27929,-1.0293 0.85156,0.56055 2.5293,-0.30078 1.7207,0.98046 2.38868,0.66016 1.68164,1.15039 1.89844,2.36914 0.46093,1.2793 0.31055,1.88086 -0.61133,0.92969 0.57031,1.77929 0.30078,0.29102 1.01954,-0.21094 0.10937,-0.68945 0.83985,-0.0899 -0.17969,-1.81054 0.85937,-2.92969 -0.51953,-3.50977 0.51953,-1.24023 -0.34961,-1.0293 0.45117,-0.75976 -0.20117,-0.21094 -0.25976,0.33984 -0.85938,-0.46875 -1.37109,0.20899 -0.28906,0.51953 0.01,-0.62891 -0.53906,-0.5 -0.31055,0.46875 0.25977,0.41016 -0.46094,0.39062 -1.38867,-1.35937 0.0703,-0.33008 0.50977,0.13867 0.3789,-1.44922 2.61133,-3.00976 17.16992,-13.83008 5.36914,-6.81055 3.51954,-3.67968 0.99023,-2.03907 1.53125,-1.73047 2.04883,-3.52929 2.25,-4.67188 1.25976,-1.75 1.08008,-0.75976 0.75,-3.29883 -0.50976,-2.36133 -0.17969,0.24024 -0.50977,-0.33008 -0.28125,-0.78907 0.77149,-1.74023 1.46875,-0.66016 1.46093,0.30078 6.03907,-2.32031 5.48047,-1.35937 1.88085,0.81836 1.88868,-0.0684 2.08008,0.57812 0.56054,-1.09961 1.33008,0.15039 0.49023,-0.43945 2.20899,0.13867 1.08984,0.3711 1.0918,0.90039 0.95898,-1.57032 1.14063,-0.71093 1.91015,0.041 2.0586,0.87891 1.49023,0.20117 0.71094,0.68945 2.95899,-1.19922 0.77148,-1.25 2.59961,0.20899 0.16992,-0.46875 0.0781,-0.004 -0.16797,0.46289 2.35937,1.99024 1.66016,0.10937 1.19922,2.69141 3.66015,-1.64063 1.66016,0.84961 0.32031,0.40039 -0.0391,0.98047 -0.4707,0.0898 0.55078,0.45898 -0.52149,0.5 0.16993,0.63086 0.60156,0.25 -1.24024,0.0801 1.04883,0.19922 0.0508,0.34961 -0.75,0.23047 1.16992,0.76953 0.59961,0 0.0801,-0.36914 0.88086,-0.48047 1.26953,-0.25977 0.78907,0.11914 -0.0899,0.42188 -0.74023,0.69922 -2,0.41015 -2.76953,-0.71093 -2.07032,-0.10938 -2.54883,-0.92969 -1.64062,0.0391 -1.07031,0.41015 -2.07031,-0.10937 -2.61915,-0.94922 -0.18945,-0.38086 -0.85156,0.33984 -0.68945,-0.26953 -0.37891,0.88867 -0.80078,0.041 -0.54102,0.91992 4.98047,1.93945 0.67969,-0.0293 0.88086,-0.69922 0.4707,0.10937 0.5586,0.59961 1.06054,2.5293 -0.57031,0.4707 -0.88867,0.0508 -0.51172,0.91992 -1.42969,0.68946 -1.33984,0.41015 -3.01953,0.0801 -1.41993,0.56055 -0.91015,0.71875 -0.19922,0.56055 0.59961,0.11914 0.16015,1.41015 0.35938,-0.3789 2.99023,0.15039 0.65039,-1.36133 1.50977,0.33008 0.36914,1.03125 0.67969,0.66992 2.10156,0.35937 0.45899,-0.43945 0.91992,0.39844 0.4707,1.29101 1.31055,0.98047 0.8789,-0.01 1.30078,1.35937 0.36915,0.0391 -0.40039,-0.3086 0.4707,-0.43164 1.08008,0.32031 0.27929,0.73047 -0.29883,0.11914 -0.15039,-0.33984 -0.13085,0.24023 0.30078,1.04102 -0.41016,0.61914 -0.75977,-0.13867 9.89063,3.08984 1.72852,0.39844 -0.25977,-0.19922 0.17969,-0.46094 1.98047,-0.94922 1.66992,-0.3789 0.81054,0.36914 2.08008,-0.44922 0.17969,-0.41016 0.83984,-0.29101 2.06055,0.60937 0.91992,-0.28906 2.66992,0.53906 0.99024,-0.30859 1.66015,0.0898 0.47852,-0.18945 -0.4082,-0.49024 0.50976,-0.75 -0.31054,-0.50976 0.33007,-0.37109 1.18946,0.12109 0.48047,0.85937 1.58984,0.58985 1.83984,-1.51953 0.42969,-1.16016 -0.2793,-0.71094 0.54883,0.16993 0.75,-1.32032 -0.64844,2.0918 0.70899,1.0293 -0.75,0.93945 -0.15039,1.24023 0.32031,0.17969 0.01,-1.13867 0.30078,-0.19141 1.23047,-0.33007 1.00976,0.29101 0.78907,0.58984 -0.28907,1.41016 -0.63086,0 0.0703,0.65039 0.84961,0.13867 0.1914,-1.40039 0.47852,-0.44922 0.28125,0.10938 2.95898,3.99023 0.12109,-0.51953 1.11915,-0.41015 1.02929,0.84961 0.89063,0.0703 -0.82031,-1.16016 0.16992,-1.05859 0.66015,-0.32032 1.5,0.3086 -1.54883,-1.12891 -0.16992,-1.16992 0.44922,0.33984 0.46094,-0.12109 0.29883,-0.87891 0.53125,0 0.64844,-1.08007 0.86132,0.44922 0.26953,0.71093 0.69922,-0.25 -0.72851,-4.23047 0.97851,-0.16992 -0.15039,-0.58984 0.8418,0.82031 0.35937,-0.16992 0.0996,0.55859 0.54102,0.45117 0.9082,0.47071 0.67188,-0.13086 -0.75,-1.34961 0.20898,-0.69141 1.46094,-0.0391 0.28906,-0.65039 2.11914,1.68945 1,-0.16992 0.38086,-0.51953 0.51953,0.81055 0.95117,-0.33985 0.79883,0.20899 0.99024,0.78125 2.34961,4.25976 -0.0293,-0.91992 0.69922,-1.08008 0.73047,0.67969 0.0605,1.0293 0.48047,0.0703 0.64844,-0.83984 0.54102,0.33007 0.49023,0.94922 0.49023,-0.95898 -0.80078,-0.55078 0.13086,-0.70899 -0.31054,-0.58984 -0.47071,-0.41992 -0.68945,0.33007 -0.14062,-0.24023 0.87109,-0.29101 0.42969,-1.39844 0.61914,0.18945 0.5,1.35938 -0.63868,1.58007 0.34961,0.42969 1.48047,-1.16015 0.14844,-0.60938 -0.95898,-0.86914 -1.01954,-3.11133 -1.48046,-0.42969 0.42968,-0.5 0.80078,0.69922 0.49024,-1.38867 0.5,-0.0312 0.96875,1.11133 0.43945,1.16992 0.75,0.61914 0.79102,2.30078 1.16015,1.32031 0.10938,2.62891 0.68945,-0.16992 0.15039,-1.69922 0.65039,-1.11133 -0.25976,-0.38867 -0.65039,0.24023 -0.41016,-1.25 0.49024,-1.75976 -0.51954,-1.45117 0.53907,0.14062 0.57031,1.23047 -0.0703,0.95899 0.58008,0.90039 0.99023,-0.25 1.37109,1.41992 0.39844,0.01 0.26172,0.68946 0.44922,0 0.80078,0.74023 0.96875,0.21094 0.14062,-0.40039 0.92969,-0.24024 -0.56054,-1.08984 0,-0.7207 0.36132,-0.50977 0.46875,-0.0293 0.75,1.07032 0.80078,0.5 -0.0703,2.41015 -0.63086,1.42969 -0.56836,-0.21094 -0.0508,-0.43945 0.44922,0.0801 0.041,-0.26953 -0.68946,-1.28125 -1.41015,0.57031 -0.41993,1.38086 -0.36132,-1.71094 -0.39844,-0.0586 0.1582,0.39844 -0.48828,0.9414 -0.77148,0.59961 0.30078,1.60938 1.16992,0.21093 0,0.3086 -1.53906,-0.24024 -0.53125,0.78125 -0.0605,0.59961 1.66992,0.41992 0.47071,0.44922 -0.29883,0.66016 0.32812,1.63086 0.51172,-1.39063 0.53906,-0.49023 0.33008,-0.23828 0.46094,0.20898 0.29883,0.56055 1.43945,-1.32031 0.65039,-1.08008 1.25,-3.13086 -0.73047,-2.60938 0.20117,-1.17968 1.91993,-0.51954 1.58007,0.75977 0.93946,-0.25977 0.50976,0.66016 1.29102,-0.0605 0.68945,-2.09961 2.14063,-1.75 4.69922,-1 1.39062,-0.86132 0.85938,-1.09961 -0.97071,0.0898 -0.002,-0.041 0.95312,-0.0879 0.85938,-1.99023 2.05078,-1.31055 0.70899,-1.24023 -0.0586,-2.08008 -0.82031,-0.71875 -0.74024,-2.16992 0.95899,-0.56055 -0.33984,0.94922 0.42968,0.15039 0.67188,1.2207 1.68945,0.62891 0.33008,0.50977 0.0293,0.82031 -0.61915,0.91016 0.38868,2.16992 1.24023,0.12109 0.62109,0.97852 0.44922,-1.12891 0.54102,-0.28125 0.25976,0.19141 -1.28124,2.03906 -0.66993,0.14062 -0.27929,1.39063 -2.29102,3.19922 -0.33008,1.63086 -2.56836,1.22851 -2.62109,0.49024 -1.0293,0.54101 0.0801,0.63868 -1.46094,1.11132 0,1.19922 4.45117,-1.63086 1.93946,-1.52929 6.09961,-10.16993 3.14062,-4.15039 4.85938,-2.34961 4.53125,-4.90039 4.93945,-2.8789 1.81055,-0.75 3.20898,-0.39063 2.88086,0.50977 1.46875,-0.58985 1.16016,-0.0605 1.57031,0.93164 0.88086,1.27929 -0.0312,1.50977 -1.43945,2.46094 -1.41993,1.08984 -0.64062,0.0488 -0.37891,0.96094 -0.56054,0.38867 -0.54102,-0.19922 -0.0684,0.44922 0.29883,0.0312 1.16016,-0.73047 0.70117,0.16016 0.92968,-1.04102 3.61915,-6.22852 2.39062,-2.90039 1.29883,-0.89062 5.33008,-1.78906 1.39062,-0.75977 3.48047,-0.12109 1.88867,1.07031 1.29102,1.2793 0.68945,1.52148 -0.2793,0.71875 -1.37109,1.25977 -0.16992,0.66992 -1,0.6914 0.6914,0.0293 1.84961,-2.49023 1.45899,-3.87891 1.41992,-2.62109 2.81055,-2.41016 1.50976,-0.25976 1.02149,-0.66993 0.0683,0.0293 2.02148,-1.16992 1.33008,-0.31836 0.80859,-0.87109 1.64063,-0.94922 1.70898,0.80859 1.0918,1.13086 0.18945,1.0293 -1.12109,1.13086 0.27148,0 1.31836,-1.17969 5.19141,-7.50977 1.10937,-0.45117 -0.20898,-0.85937 0.69922,-0.58985 3,-0.66992 2.60937,0.74023 2.91993,-0.31054 3.4707,-1.24024 2.51953,0.80078 0.86133,-0.14062 1.25976,0.40039 1.08985,-1.12109 1.25,0.40039 1.21875,2.01953 1,-0.16992 1.7207,-2.08008 0.75,-1.5586 0.25977,-3.64062 -0.41993,-0.86914 1.84961,-0.44141 0.0703,-0.75 1.14062,-0.0391 0.29883,-0.36133 -0.13867,-0.81836 0.33007,-1.25 -3.88085,-0.12109 -0.0703,-0.93945 1.04102,-2.14063 1.20898,-0.2793 -0.0391,-0.80078 0.5293,-0.0195 0.0508,-4.08984 -0.51953,-0.25 0.18945,-1.21094 -0.30078,-0.29883 -0.0293,-1.78125 0.73047,-0.0586 0.16016,-1.58008 1.41992,-0.0195 0.01,-1.96094 3.54883,-0.0996 0.13086,-1.25976 5.31055,-0.041 0.4082,-0.51953 -0.01,-0.73047 1.29101,-0.01 -0.0703,-1.49024 2.33008,-0.01 0.0508,0.92968 1.23828,-0.21875 -0.0996,-2.10156 0.66992,-0.58984 0.20117,-1.64844 -0.48046,-0.88086 0.27929,-1.31055 1.30078,-0.0488 -0.12109,-1.13085 0.36133,-1.26954 1.30859,-0.17968 0.16016,-0.46094 2.68164,0.34961 3.93945,-0.0801 -0.004,-0.0176 0.31445,0.008 0,0.9414 2.05859,0.48828 0.11133,-0.41992 2.84961,-0.18945 0.25,-0.66992 4.90039,-0.19922 0.94922,2.04883 0.59961,-0.33008 0.36133,-0.86914 1.1582,-0.33985 1.39063,1.73047 0.5,-0.26172 0.45117,0.35156 0.66992,-0.57031 1.95898,-0.0996 3.84961,0.59961 0.89063,-1.05078 -0.01,-1.08008 1.04883,-0.22851 -0.01,-2.44141 0.45117,-1.43945 0.42968,-0.11914 0,-1.44141 -0.35937,-0.29883 0.25,-0.70117 -0.71094,-0.50976 -0.63086,-1.41993 3.66016,-0.0605 -0.0293,-0.43946 -1.58984,-0.94922 1.05078,-0.61132 0.1582,-1.85938 0.96094,-1.25976 0.31055,-1.85938 0.91992,-0.12109 0.18945,-2.40039 2.25977,0.20117 -0.01,-0.91992 0.41992,-0.57032 -1.16015,-3.20117 -0.44922,0.15039 -0.37109,0.56055 0.2207,0.16016 -0.55078,-0.17969 -1.17969,1.62891 -0.31055,-0.33008 0.20117,-0.56836 -0.46093,-0.60156 -0.33985,0.14062 -0.27929,-0.57031 -1.38086,-0.0391 0.27148,-1.21093 1.33984,-0.0195 1.89844,-0.88086 -0.3789,-0.96875 0.20898,-0.84961 -0.60937,0.57812 -0.56055,-0.79883 0.39062,-0.37109 -0.39062,-0.30859 0.13086,-0.86133 -0.66016,-0.72852 0.23047,-0.58984 -1.68945,-1.25 -0.0312,-1.48047 0.67969,-0.41016 -0.58008,-3.04101 -0.91992,-0.47852 0.0898,-0.33984 -0.5586,0.0488 -0.53124,-0.41992 -1.34961,0.51953 -0.24024,-0.39844 -1.92969,0.21875 -0.92968,-1.17969 1.14062,-1.49023 -0.0898,-0.5293 0.60937,-0.30078 0.0293,-0.56055 -0.31055,-0.1582 0.67188,-0.75 -0.1211,-0.96094 -0.49023,-0.14062 0.28125,-0.38868 -0.25,-0.36132 0.64844,-0.28907 0.0508,-0.68945 0.42969,-0.18164 -0.01,-1.10937 1.01953,-0.0391 -0.0488,-0.64062 0.5586,-0.71094 -0.10938,-1 0.23047,-0.64844 0.37891,-0.0312 -0.16992,-0.55859 0.25976,-0.27148 5.99024,2.4707 3.39062,-3.98047 -0.66016,-1.95899 -0.78906,-0.45117 -1.02148,0.81055 -0.39844,1.71094 -1.30078,-0.26172 -1.14063,-1.16016 -2.25,0.27149 -0.27929,-0.48047 -0.59961,0.76953 -0.33008,-1.10938 -0.58985,-0.45117 -0.27148,0.21094 -0.63867,-0.68945 0.5,-0.75 -1.08008,-1.41993 -0.20117,-1.02148 -1.03906,-0.0801 -0.79102,-0.60937 -0.66992,0.51953 -0.41016,-0.46875 0.64063,-1.82031 -0.37891,-0.30078 0.67969,-0.5586 2.59961,0.58984 1.30078,-1.05078 2.4082,-0.10937 1.99024,0.34961 0.0898,-1.44922 3.03125,-4.89063 1.53906,-0.41015 2.04102,-2.71094 2.08984,0.0117 0.51953,-0.28125 0.1211,-1.09961 -1.38086,-1.41992 0.49023,-2.76953 -1.66992,-1.80078 -2.08008,-1.47071 -1.58984,-2.83984 0.33008,-2.92969 4.24023,-2.50976 -1.01172,-1.37891 -0.0391,-1.03125 -2.38086,0.88086 -0.59961,-0.32031 -3.13867,0.3789 -1.0918,1.47071 -1.1289,0.41015 -2.90039,0.15039 -1.93946,-2.04101 -3.07031,-0.93946 -2.01953,-4.90039 0.34961,-1.29883 -2.26953,-0.23046 -1.78125,-0.96094 -1.42969,-0.22852 -2.29883,1.08985 -3.12109,-0.90039 -1.19922,-1.17969 -0.69141,-1.41016 -0.13867,-1.75976 -1.51953,-2.55078 -1.58008,1.32031 -0.86133,1.41015 -1.41015,1.03907 -1.43946,-0.31836 -2.5,1.45898 -0.60937,-0.0293 -0.82031,-1.58007 0.23046,-0.20117 -0.27148,-0.91993 0.41992,-0.52929 -0.6289,-0.58008 -1.68946,0.25976 -0.98047,-0.76953 -1.12109,0.01 -0.62891,-0.86914 -0.81054,-0.1211 -0.7793,-1.4707 -1.01953,-0.4082 -0.21094,-1.47071 0.85938,-0.9707 -0.81836,-1.00976 -0.31055,0 0.0391,1.37109 -1.10937,0.92969 -1.01953,-0.91016 -1.11133,-0.23047 -1.92969,1.0293 -1.29883,-0.41016 -0.33008,-0.92968 -0.42968,-0.0391 0.0684,-0.62109 -1.22852,-0.23828 -0.55078,0.88867 -2.16992,-1.21875 0.0996,-0.96094 -0.78907,-2.5293 -0.0605,-0.60156 -0.56055,-0.17968 -1.42969,0.82031 -3.1289,-0.41016 0.27929,3.08985 1.0293,2.24023 -0.75,0.49023 -0.0195,0.40039 -1.03906,0.5 0.23828,0.58008 -1.5,1.03907 -0.10938,-1.04883 -2.26953,0.92968 -0.80078,1.19922 -0.36914,-0.54883 0.0606,-0.75 0.67968,-0.39062 -1.31054,-1.82031 -0.29102,0.15039 -1.01953,-0.73047 -1.44922,-3.11914 -1.12109,-0.75977 -1.28906,-0.31054 -1.85938,-1.35938 -1.41016,0.26953 -1.58984,-2.63086 -2.23047,-2.41992 -0.0508,-0.88867 -0.90039,-1.40039 0.41992,-1.08985 -0.01,-2.78124 0.35156,-1.01954 -1.21094,-0.31054 -0.90039,0.48047 -0.62891,-1.07032 -1.16015,-0.38867 -0.59961,-0.87109 -0.66016,-0.26953 -0.66992,-1.40039 -0.0312,-2.34961 0.65039,-0.29102 0.17969,-1.19922 -0.33008,-0.14062 -2.23047,1.40039 -2.67968,-0.23047 -0.75977,0.57031 -0.69922,1.40039 -4.76953,2.38086 -0.5,-0.32031 -1.07031,0.13867 0.0391,0.41016 -1.94922,0.33008 -0.80078,-0.33008 -3.08984,0.0703 -2.35938,0.83008 -0.98047,0.9707 -2.14062,0.62891 -0.74024,1.10156 -1.06836,0.22852 -0.52148,0.64062 -0.37891,-0.13086 -0.41015,1.56055 -0.92969,0.95117 -1.31055,-0.28125 -1.65039,-1.33008 0.58008,-0.63867 -0.13867,-0.64063 0.57812,-0.0605 -0.21875,-0.50977 -1.25976,0.19922 -0.73047,-0.21875 -0.041,-0.46094 -0.9082,-0.16992 -0.51172,-0.69922 -1.39844,0 -0.35156,-0.95117 -0.89844,1.03125 -1.10156,0.51953 0.19141,0.35938 -0.40039,0.25 -2.38086,-0.22852 -0.87891,-1.68164 0.32031,-0.76953 -1.4707,-1.16016 -1.56055,-2.38867 -0.5,0.22852 -0.52929,-1.53907 -3.18946,-1.05078 -4.70117,0.94141 -1.26953,-0.43164 -0.66992,0.9707 -0.55078,-0.33008 -0.5,0.24024 -0.17969,-0.42969 -1.25977,0.84961 0.33008,0.33008 -0.10937,0.63086 -2.16016,2.25 -2.59961,0.18945 -1.23047,-0.0195 -0.76953,-0.75 0.29883,-0.46094 -0.98047,-0.57031 0.0312,-3.35938 -0.51953,-0.73046 -0.26172,0.51953 -2.87891,-1.8086 -1.34961,-2.21093 -0.24023,-1.628911 -1.25,-0.960937 1.08008,-1.240234 -1.04102,-1.958985 0.1211,-0.650391 2.16992,-0.759765 0.83984,0.558594 0.25977,-1.148438 -0.85938,-0.701172 -0.30078,-0.730469 0.29102,-0.789062 -0.38086,-0.08008 -0.0996,-0.410156 0.73047,-0.580078 -0.15039,-0.410157 0.55859,-1.689453 -0.36914,-0.310547 -0.86914,0.01953 -1.26172,-0.978515 0.14063,-2.419922 -0.49024,-0.900391 -0.73047,-0.439453 0.5,-0.53125 -0.55859,-0.808593 0.75,-0.371094 -0.0996,-0.650391 -0.33008,-0.478515 -0.73047,-0.101563 -0.0312,-0.359375 -1.14844,-0.150391 -0.1914,-0.46875 0.80078,-1.75 -1.09961,-2.080078 1.75,0.419922 0.42969,-0.630859 0.81054,-0.359375 -0.12109,-1.240235 -0.63867,-0.25 -0.36133,-0.621093 -0.93945,0.130859 -1.41992,-0.810547 -0.0293,0.28125 -1.05078,0.388672 -0.0801,0.429687 -0.71094,-0.408203 -1.25976,1.019532 -0.81836,-0.339844 -0.8418,-1.660156 -0.51953,0.03906 0.24023,-0.419922 0.59961,0.111328 0.0996,-0.490234 -0.47851,-0.621094 0.36914,-0.779297 -1,-0.529296 -0.11914,-1.041016 -0.47071,-0.560547 0.3711,-0.398437 -0.20117,-1.201172 0.65039,-1.628907 -0.89063,-0.390625 -1.73047,-0.05078 -0.33984,0.810547 -0.72852,0.619141 -0.15039,-0.798829 -0.96093,-0.669921 -0.97852,-0.09961 -1.23047,0.910157 -0.17969,0.679687 -0.90039,-0.111328 -0.41992,0.541015 -0.75,0.240235 -0.49023,-0.349609 -0.91016,0.859374 -0.10938,0.689454 -0.75,-0.109375 -0.6914,-0.689453 -0.43945,0.539062 -1.49024,-0.349609 -0.43945,0.449218 -1.61914,-1.269531 -0.28125,-2.710937 -2.00977,-0.378907 -0.75976,1.080078 -1.33008,-0.929687 -0.65039,-0.0098 -0.32031,0.478516 L 418.01953,62 l -1.35937,-0.880859 -0.38086,0.201171 -1.70899,-0.849609 -1.81054,1.789063 -0.73047,0.08008 -2.68946,-1.458985 0.0996,-0.451171 0.66993,-0.269532 -0.36915,-0.830078 0.90039,-0.349609 0.16016,-0.640625 0.25977,0.05078 0.20898,-0.611328 -0.21875,-0.71875 1.0293,0.08008 0.85937,-1.191406 -0.15039,-0.638672 -1.02929,-0.550781 -0.54883,0.08008 0.10937,-0.640625 -0.66992,0.101562 -0.66992,-0.740234 -0.76953,0.05859 -0.27149,-0.978516 0.3711,-0.140625 -0.23047,-0.529297 0.74023,-0.140625 0.28907,-0.480469 -0.24024,-0.910156 0.74024,-0.939453 0.75,-0.349609 -0.0996,-1.640625 0.60937,-0.0098 0.0918,-0.410156 -0.46094,-0.708985 -1.24023,-0.0918 -0.0801,-1.458984 -0.66992,-1.359375 -0.66016,0.519531 -0.13867,-1.320312 -1.03125,0.140625 -0.53907,-2.53125 -1.20117,0.130859 -0.01,-0.419922 -0.64063,-0.05078 -0.21875,-0.699219 -0.49023,0.119141 -0.25977,-0.320313 1.5293,-1.179687 1.11133,0.150391 1.4082,-0.449219 0.3418,-0.451172 0.77929,0.291016 1.85938,-0.429688 0.62109,-0.830078 1.89844,0.419922 1.9319,-0.560512 0.62891,-1.160156 -0.14063,-1.189453 -0.95898,-1.259766 0.25,-2.03125 -0.9707,-0.978516 -0.58985,-0.15039 -0.34961,-0.78125 -1.00976,-0.410157 -1.01954,-1.029296 -0.66992,0 -0.5,0.5 -0.53125,-0.109375 0.33985,-0.439453 0.01,-1.181641 -1.30859,-0.519531 0.16992,-0.490235 -0.66992,-0.65039 -0.58985,-1.539063 -1.52148,0.05078 -0.41992,-0.771484 0.23047,-0.949219 -1.34961,-0.439453 -0.19922,-1.089844 0.21875,-0.791015 -0.63867,-1.570313 -0.60156,-0.04883 1.23046,-1.130859 -0.32031,-0.800782 0.7207,-0.71875 0.17969,-1.201171 -1.91992,-1.388672 0.13086,-0.88086 L 403.2893,9.8300751 401.85938,9.6308594 401.5,8.3007812 400.2207,8.0292969 400.10938,7.4296875 399.5,7.3007812 l 0.16992,-1.8710937 -0.85937,-1.2695313 -0.33008,-0.1992187 -0.19141,0.3886719 -1.04883,-0.3300782 -1.09961,-0.7304687 0.45899,-0.7597656 -0.58984,-1.5097657 -1.60938,-0.4101562 -2.00977,0.8007812 -0.54101,-0.46093745 -1.07031,0.28125005 -0.11914,0.4804687 -0.71094,0.5195313 -1.7793,0.3203124 -0.81054,1.21875 -1.22852,-0.6386718 0.63867,0.6386718 -0.23047,0.5605469 -2.60937,-0.6699219 0.42969,-1.0605468 0.63085,-0.099609 0.31055,-0.4609375 -0.2207,-0.7792969 -1.60938,-0.070312 -0.31054,-0.49999998 -0.60938,0.75976568 0.25,0.6503906 -0.65039,-0.1992188 -0.50977,-0.25 0.0996,-0.4902344 L 380.98047,0.5 l -0.63086,-0.0390625 -1.21875,1.1191406 -0.65039,-0.2109375 -0.46094,0.2304688 -3.23047,-1.37890628 -0.3789,0.109375 z m -146.19922,226.96137 -0.082,0.55859 -0.043,-0.0371 0.0645,-0.50195 0.0605,-0.0195 z m 106.5586,70.02883 0.39062,0.54883 -0.0859,0.004 -0.38476,-0.54297 z m -17.39061,4.75 1.46094,2.11915 2.55078,2.10156 2.60937,2.78906 0.24024,0 -0.50977,-0.58984 0.14844,-0.80078 0.80078,-0.83985 1.08985,-0.25 1.73046,0.46094 0.53907,-0.91992 0.80078,-0.041 0.38086,-0.88867 -1.77149,-0.48047 -1.66015,-1.00977 -3.44922,0.5 -2.51953,-0.041 -1.57032,-0.88867 -0.87109,-1.22071 z m 0.66992,10.49024 -0.4082,0.83984 0.12891,1.87891 0.93945,1.64062 1.78125,1.47071 3.37891,1.26953 8.71093,1.93945 -10.08984,-2.49023 0.0996,-0.34961 0.68945,-0.20899 -0.19922,-0.25 -1.62109,0.21875 -1.92969,-0.99023 -0.84961,-1.10938 -0.35937,-1.27929 0.0488,-2.50977 -0.32032,-0.0703 z m 111.36133,10.61914 -0.67969,0.58008 0.29883,2.24023 -0.61914,0.89063 -0.37109,-0.15039 -0.53907,-1.48047 -1.33984,0.5 -1.71094,-0.29883 0.01,0.47852 1.30078,0.52148 0.2793,0.70898 -0.34961,0.83008 0.98047,0.51953 0.74023,1.47071 0.53906,-2.00977 0.63086,-0.0898 0.61914,0.65039 0.31055,1.63867 0.39062,-0.0391 -0.16992,1.03906 0.64844,0.26953 0.86133,2.19141 -1.11133,-1.11133 0.0215,0.87109 0.43946,0.5293 -0.41016,2.96094 -0.69922,1.65039 0.26953,0.6582 0.7793,-0.10937 0.66992,-0.65039 0.31055,-1.08985 0.59961,-0.12891 0.75,1.01954 0.76953,2.59961 0.55078,-0.28907 -3.20898,-8.75976 -1.27149,-8.04102 -0.28906,-0.57031 z m -11.80078,1.24023 -1.13867,0.0508 -1.32032,1.2793 0.39844,1.75977 0.25,0 -0.13867,-1.35938 1.16016,-0.62109 0.19922,-0.69922 0.58984,-0.41016 z m -64.54883,2.75977 -0.41016,0.0606 6.74024,1.49414 -2.95117,-0.95508 -3.37891,-0.59961 z m 6.33008,1.55469 0.50976,0.16601 0.125,-0.0234 -0.63476,-0.14258 z m 0.63476,0.14258 3.53516,0.7832 5.21875,0.39062 1.25977,-0.36132 -0.91992,-0.54883 -1.96876,-0.16993 -1.16015,-0.83007 -0.41992,0.49023 -0.96094,-0.16016 -1.21875,-1.00976 -1.80078,1.10937 z m 64.78516,0.93359 1.48828,1.54883 1.14063,0.33008 0.23047,-1.25977 -1.46094,0.21094 -0.68945,-0.71094 z"
       id="UA-18"
       style="fill:#999999" />
  </g>
</svg>
